<svg xmlns="http://www.w3.org/2000/svg" xmlns:xlink="http://www.w3.org/1999/xlink" viewBox="0 0 109.71 109.7"><defs><style>.cls-1{fill:#3a3d4c;}.cls-2{fill:url(#linear-gradient);}</style><linearGradient id="linear-gradient" x1="54.69" y1="35.11" x2="109.71" y2="35.11" gradientTransform="translate(93.31 -12.52) rotate(74.72)" gradientUnits="userSpaceOnUse"><stop offset="0.01" stop-color="#0fd"/><stop offset="1" stop-color="#5a6ff0"/></linearGradient></defs><g id="OBJECTS"><path class="cls-1" d="M107.08,38.08c-.22-.71-.47-1.41-.72-2.11l-6.84,2.51c.22.6.43,1.2.62,1.82Zm-1.52-4.18c-.3-.69-.59-1.37-.9-2l-6.61,3c.27.59.52,1.17.77,1.77Zm-1.87-4c-.35-.66-.69-1.31-1-2L96.3,31.47c.3.55.61,1.11.91,1.7ZM101.5,26c-.39-.63-.79-1.26-1.2-1.87l-6,4.07c.35.54.71,1.09,1,1.63ZM99,22.29c-.44-.61-.89-1.19-1.36-1.77L92,25.08c.4.5.78,1,1.17,1.52Zm-2.78-3.47c-.5-.56-1-1.11-1.5-1.65l-5.29,5c.44.47.87.95,1.3,1.43Zm-3.06-3.23c-.54-.52-1.07-1-1.63-1.52l-4.86,5.42c.48.43.95.87,1.41,1.31Zm-3.31-3c-.57-.48-1.15-.93-1.74-1.39L83.71,17c.51.39,1,.79,1.51,1.21Zm-3.54-2.7c-.61-.42-1.22-.83-1.85-1.23l-3.92,6.12c.54.35,1.07.71,1.6,1.07Zm-3.74-2.4c-.64-.38-1.29-.74-2-1.09l-3.41,6.43c.57.3,1.13.61,1.68.94ZM78.65,5.43c-.67-.33-1.34-.63-2-.93l-2.89,6.68c.59.26,1.18.52,1.75.8ZM74.57,3.65c-.7-.27-1.4-.52-2.11-.75L70.13,9.79c.6.21,1.21.42,1.81.65ZM70.34,2.22c-.71-.21-1.43-.4-2.14-.59L66.41,8.69c.63.16,1.26.33,1.88.51ZM66,1.13C65.29,1,64.56.85,63.82.72L62.64,7.91c.63.1,1.26.22,1.9.35ZM61.62.4C60.88.31,60.13.23,59.39.17l-.6,7.25c.65,0,1.29.13,1.92.2ZM57.17,0c-.75,0-1.49,0-2.23,0V7.26c.65,0,1.29,0,1.93,0ZM52.71,0c-.74,0-1.49.08-2.22.14l.59,7.25L53,7.29ZM48.28.38c-.75.09-1.48.2-2.21.32l1.17,7.18,1.91-.27Zm-4.4.72c-.73.16-1.45.31-2.17.49l1.75,7.07c.63-.15,1.25-.29,1.88-.42Zm-2.3,8.06-2-7c-.72.22-1.43.43-2.13.67l2.3,6.91C40.35,9.54,41,9.34,41.58,9.16Zm-3.65,1.23L35.34,3.58c-.7.26-1.39.54-2.06.83l2.85,6.69C36.72,10.85,37.31,10.62,37.93,10.39ZM34.37,11.9,31.25,5.33c-.67.32-1.34.64-2,1l3.38,6.44C33.21,12.46,33.78,12.18,34.37,11.9ZM31,13.7,27.3,7.4c-.64.37-1.27.75-1.9,1.15l3.91,6.15C29.85,14.36,30.4,14,31,13.7Zm-3.26,2.07-4.14-6c-.62.43-1.22.87-1.81,1.32l4.4,5.8C26.64,16.52,27.17,16.13,27.69,15.77Zm-3.06,2.32L20,12.47c-.57.47-1.14,1-1.69,1.45l4.85,5.42C23.64,18.92,24.13,18.5,24.63,18.09Zm-2.88,2.57-5.07-5.23q-.8.78-1.56,1.59l5.27,5C20.84,21.57,21.29,21.11,21.75,20.66Zm-2.65,2.8-5.48-4.79c-.49.55-1,1.12-1.44,1.69l5.67,4.57C18.26,24.44,18.68,23.94,19.1,23.46Zm-2.43,3-5.84-4.34c-.45.6-.87,1.21-1.3,1.82l6,4.1C15.92,27.5,16.29,27,16.67,26.46ZM14.5,29.65,8.32,25.79c-.39.64-.77,1.27-1.14,1.92l6.33,3.6C13.83,30.75,14.16,30.2,14.5,29.65ZM12.58,33,6.12,29.67c-.34.65-.67,1.32-1,2l6.6,3.08C12,34.16,12.29,33.58,12.58,33ZM11,36.51,4.24,33.7c-.29.69-.57,1.38-.82,2.07l6.82,2.54C10.46,37.7,10.71,37.11,11,36.51ZM9.6,40.13,2.69,37.88c-.24.7-.46,1.42-.65,2.13l7,2C9.22,41.37,9.41,40.75,9.6,40.13Zm-1,3.73L1.47,42.17c-.16.72-.33,1.45-.47,2.18l7.14,1.4Q8.33,44.79,8.56,43.86Zm-.75,3.79L.62,46.55c-.11.73-.21,1.47-.3,2.21l7.24.81C7.63,48.92,7.72,48.29,7.81,47.65ZM7.38,51.5.12,51c0,.73-.09,1.48-.11,2.22l7.28.22C7.31,52.79,7.34,52.13,7.38,51.5Zm-.12,3.86L0,55.45c0,.73,0,1.47.07,2.22l7.27-.38C7.3,56.65,7.27,56,7.26,55.36Zm.21,3.85-7.25.68c.08.74.15,1.48.25,2.22l7.22-1C7.6,60.49,7.53,59.86,7.47,59.21ZM8,63,.81,64.3c.13.74.28,1.46.44,2.19l7.11-1.55C8.22,64.3,8.1,63.67,8,63Z"/><path class="cls-2" d="M107.76,40.38l0-.15-7,1.92,0,.17c.16.56.3,1.14.44,1.71l7.08-1.66C108.12,41.72,108,41.06,107.76,40.38Zm1,4.17-7.15,1.37c.13.64.24,1.27.33,1.9l7.19-1.08C109,46,108.87,45.28,108.73,44.55Zm.67,4.4-7.24.79c.07.65.12,1.29.16,1.93l7.27-.5C109.54,50.43,109.48,49.69,109.4,49Zm.3,4.45-7.28.19c0,.65,0,1.29,0,1.94l7.29.09C109.72,54.88,109.72,54.14,109.7,53.4Zm-.06,4.45-7.27-.4c0,.65-.08,1.29-.15,1.93l7.25.69C109.54,59.34,109.6,58.6,109.64,57.85Zm-.43,4.44-7.21-1c-.09.64-.19,1.28-.31,1.91l7.18,1.29C109,63.77,109.11,63,109.21,62.29Zm-.78,4.39-7.11-1.57c-.15.63-.3,1.26-.46,1.88l7,1.87C108.09,68.13,108.26,67.41,108.43,66.68ZM107.28,71l-7-2.15c-.19.61-.4,1.23-.62,1.84l6.88,2.42C106.83,72.41,107.06,71.71,107.28,71Zm-1.48,4.2L99,72.49c-.24.61-.5,1.19-.76,1.78l6.65,3C105.23,76.57,105.52,75.88,105.8,75.2ZM104,79.26,97.46,76q-.43.87-.9,1.71l6.38,3.5C103.3,80.58,103.65,79.93,104,79.26Zm-2.14,3.9L95.6,79.41c-.33.55-.68,1.09-1,1.63l6.07,4C101.05,84.43,101.45,83.8,101.83,83.16Zm-2.44,3.72-5.92-4.24c-.37.51-.76,1-1.15,1.54l5.73,4.48C98.5,88.07,99,87.48,99.39,86.88Zm-2.74,3.5L91.1,85.67c-.41.5-.84,1-1.28,1.45l5.35,4.93C95.68,91.5,96.17,91,96.65,90.38Zm-3,3.27-5.15-5.14c-.45.46-.91.9-1.38,1.34L92,95.19C92.58,94.69,93.11,94.18,93.63,93.65Zm-3.26,3-4.72-5.54c-.48.41-1,.82-1.49,1.21l4.49,5.73C89.23,97.61,89.81,97.15,90.37,96.67Zm-3.5,2.74L82.62,93.5c-.52.37-1.05.73-1.59,1.09l4,6.08C85.65,100.26,86.27,99.84,86.87,99.41Zm-3.73,2.45L79.4,95.62q-.83.5-1.68,1l3.5,6.39Q82.2,102.43,83.14,101.86ZM79.24,104,76,97.47c-.58.28-1.17.56-1.76.82l3,6.65C77.9,104.64,78.58,104.32,79.24,104Zm-4.07,1.82L72.48,99c-.59.24-1.2.46-1.8.68l2.41,6.87C73.8,106.34,74.49,106.08,75.17,105.81ZM71,107.28l-2.13-7c-.49.15-1,.29-1.45.42s-1.24.33-1.88.47l1.65,7.1c.71-.16,1.43-.35,2.15-.55C69.87,107.61,70.43,107.45,71,107.28Zm-7.34-5.67c-.64.13-1.28.23-1.91.32l1.06,7.2c.73-.1,1.46-.23,2.19-.37Zm-3.83.56c-.64.08-1.28.13-1.92.18l.47,7.26c.74,0,1.48-.12,2.23-.2Zm-3.85.26c-.65,0-1.29,0-1.93,0l-.12,7.27c.74,0,1.49,0,2.23,0Z"/><path class="cls-1" d="M51.67,109.63c-.74,0-1.48-.1-2.23-.18l.72-7.24c.64.06,1.29.11,1.93.15Z"/><path class="cls-1" d="M47.23,109.19c-.74-.1-1.47-.22-2.21-.36l1.31-7.16c.63.11,1.28.22,1.91.31Z"/><path class="cls-1" d="M42.84,108.38c-.73-.16-1.45-.34-2.17-.53l1.9-7c.61.17,1.24.32,1.87.46Z"/><path class="cls-1" d="M38.53,107.23c-.71-.22-1.41-.46-2.11-.71l2.45-6.85c.61.21,1.21.42,1.84.61Z"/><path class="cls-1" d="M34.34,105.73c-.69-.28-1.37-.57-2.05-.88l3-6.63,1.79.76Z"/><path class="cls-1" d="M2.37,70.8c-.15-.5-.29-1-.43-1.49l-.17-.65,7-1.84.16.57c.12.44.23.87.36,1.3Z"/><path class="cls-1" d="M3.83,75c-.27-.69-.53-1.38-.78-2.08l6.89-2.39c.2.6.43,1.21.67,1.8Z"/><path class="cls-1" d="M30.28,103.89c-.66-.33-1.32-.67-2-1l3.52-6.38c.57.32,1.13.62,1.71.91Z"/><path class="cls-1" d="M26.38,101.74c-.63-.38-1.25-.78-1.87-1.19l4-6.07c.53.36,1.08.7,1.63,1Z"/><path class="cls-1" d="M22.68,99.28c-.6-.43-1.2-.88-1.78-1.34l4.5-5.72c.51.4,1,.79,1.54,1.16Z"/><path class="cls-1" d="M19.18,96.53c-.56-.48-1.12-1-1.66-1.47l4.95-5.35q.71.66,1.44,1.29Z"/><path class="cls-1" d="M15.91,93.5c-.51-.52-1-1-1.52-1.61L19.75,87c.43.48.88.94,1.33,1.39Z"/><path class="cls-1" d="M12.92,90.23c-.48-.57-.95-1.14-1.4-1.73L17.27,84c.39.52.79,1,1.21,1.51Z"/><path class="cls-1" d="M10.2,86.72c-.44-.61-.86-1.22-1.27-1.84l6.1-4c.35.54.71,1.07,1.09,1.59Z"/><path class="cls-1" d="M7.76,83c-.39-.64-.76-1.27-1.11-1.93l6.4-3.47c.31.56.63,1.12.95,1.67Z"/><path class="cls-1" d="M5.63,79.07c-.33-.65-.64-1.33-.94-2l6.65-2.94c.27.59.54,1.17.82,1.75Z"/><path class="cls-1" d="M54.86,98.48a43.65,43.65,0,1,1,11.49-1.55h0A43.42,43.42,0,0,1,54.86,98.48Zm.06-85.74A42.25,42.25,0,0,0,18.3,34a42.09,42.09,0,1,0,77.15,9.77,42.12,42.12,0,0,0-40.53-31Z"/></g></svg>